<svg width="23" height="23" viewBox="0 0 23 23" fill="none" xmlns="http://www.w3.org/2000/svg">
<path d="M4.79168 12.4583H16.1575L12.6788 16.6367C12.5982 16.7336 12.5375 16.8454 12.5002 16.9657C12.4629 17.0861 12.4496 17.2126 12.4612 17.3381C12.4846 17.5915 12.6076 17.8252 12.8033 17.9879C12.999 18.1506 13.2514 18.2288 13.5048 18.2055C13.7582 18.1821 13.9919 18.059 14.1546 17.8633L18.9463 12.1133C18.9785 12.0676 19.0073 12.0195 19.0325 11.9696C19.0325 11.9217 19.0804 11.8929 19.0996 11.845C19.143 11.7351 19.1658 11.6182 19.1667 11.5C19.1658 11.3818 19.143 11.2649 19.0996 11.155C19.0996 11.1071 19.0517 11.0783 19.0325 11.0304C19.0073 10.9804 18.9785 10.9324 18.9463 10.8867L14.1546 5.13667C14.0645 5.02849 13.9517 4.94149 13.8241 4.88186C13.6966 4.82223 13.5575 4.79144 13.4167 4.79167C13.1928 4.79123 12.9758 4.86921 12.8033 5.01208C12.7063 5.09253 12.6261 5.19134 12.5673 5.30284C12.5085 5.41434 12.4723 5.53634 12.4607 5.66186C12.4491 5.78738 12.4624 5.91395 12.4999 6.03432C12.5373 6.15469 12.5981 6.26649 12.6788 6.36333L16.1575 10.5417H4.79168C4.53751 10.5417 4.29376 10.6426 4.11403 10.8224C3.93431 11.0021 3.83334 11.2458 3.83334 11.5C3.83334 11.7542 3.93431 11.9979 4.11403 12.1776C4.29376 12.3574 4.53751 12.4583 4.79168 12.4583Z" fill="white"/>
</svg>
